# xmcd
#
# Track frame offsets:
# 182
# 23147
# 45665
# 68140
# 84570
# 105717
# 125685
# 145257
# 165672
#
# Disc length: 2500 seconds
#
# Revision: 0
# Processed by: cddbd v1.4PL0 Copyright (c) Steve Scherf et al.
# Submitted via: Axialis_AX_CDPlayer 2.6
#
DISCID=7709c209
DTITLE=DesHaime - Histoires d'hommes
DYEAR=1900
DGENRE=
TTITLE0=Le ciel de Myriam
TTITLE1=Je l'aime encore
TTITLE2=Dimanche d'automne
TTITLE3=Mad'moiselle
TTITLE4=Histoire d'homme
TTITLE5=Sérénité
TTITLE6=You
TTITLE7=Docteur
TTITLE8=La maison de mon être
EXTD=
EXTT0=
EXTT1=
EXTT2=
EXTT3=
EXTT4=
EXTT5=
EXTT6=
EXTT7=
EXTT8=
PLAYORDER=
